<?xml version="1.0" standalone="no"?>
<!DOCTYPE svg PUBLIC "-//W3C//DTD SVG 20010904//EN"
 "http://www.w3.org/TR/2001/REC-SVG-20010904/DTD/svg10.dtd">
<svg version="1.0" xmlns="http://www.w3.org/2000/svg"
 width="512.000000pt" height="512.000000pt" viewBox="0 0 512.000000 512.000000"
 preserveAspectRatio="xMidYMid meet">

<g transform="translate(0.000000,512.000000) scale(0.100000,-0.100000)"
fill="#000000" stroke="none">
<path d="M950 4480 c-255 -54 -459 -179 -579 -353 -45 -66 -108 -201 -126
-271 -37 -145 -39 -338 -4 -495 85 -391 411 -862 1014 -1466 261 -262 661
-628 681 -623 26 6 381 334 630 583 268 267 432 446 611 667 l103 126 -41 129
c-40 125 -42 127 -58 105 -243 -343 -679 -813 -1158 -1249 l-90 -83 -124 111
c-185 167 -660 646 -784 793 -441 516 -613 868 -592 1205 7 112 26 181 73 272
75 143 207 251 375 307 263 86 498 57 670 -84 139 -114 257 -293 335 -509 27
-74 51 -135 54 -135 3 0 22 55 43 123 136 433 383 646 753 648 136 1 241 -24
369 -86 154 -74 249 -179 310 -340 28 -77 30 -87 30 -242 l0 -162 37 -38 c20
-21 54 -64 76 -96 22 -32 42 -54 45 -50 3 4 18 58 33 118 38 145 40 332 5 465
-81 312 -301 522 -647 617 -87 24 -118 27 -249 27 -134 1 -161 -2 -255 -27
-226 -61 -334 -143 -540 -408 -14 -18 -18 -15 -74 61 -67 91 -180 203 -258
254 -167 111 -442 155 -668 106z"/>
<path d="M2659 3455 c-283 -56 -504 -295 -575 -620 -24 -110 -24 -343 0 -490
21 -128 63 -314 76 -335 7 -11 20 -3 67 40 32 29 64 59 71 65 11 10 9 34 -12
141 -67 337 -50 565 57 756 66 117 188 218 309 254 83 24 256 25 348 1 146
-38 291 -137 348 -240 80 -141 115 -301 110 -508 l-3 -151 45 53 c228 276 430
376 681 339 140 -20 254 -77 368 -184 71 -67 127 -154 152 -239 31 -99 24
-245 -16 -342 -68 -168 -211 -328 -450 -505 -183 -135 -722 -391 -1190 -564
-99 -37 -190 -71 -202 -76 -16 -6 -25 -6 -30 3 -30 48 -218 466 -278 619 l-38
97 -72 -67 -72 -67 47 -115 c85 -205 315 -700 326 -700 29 0 570 203 799 301
195 82 615 292 730 364 234 147 475 388 565 565 68 133 98 298 80 432 -23 167
-83 281 -215 413 -172 170 -369 254 -600 255 -131 0 -265 -43 -407 -131 -28
-16 -51 -29 -52 -27 -1 2 -12 41 -24 88 -33 126 -111 278 -180 349 -70 72
-176 141 -275 181 -140 56 -341 74 -488 45z"/>
</g>
</svg>
